<svg width="96" height="27" viewBox="0 0 96 27" fill="none" xmlns="http://www.w3.org/2000/svg">
<path d="M0.324 0.799998H5.94L11.88 19.988H12.096L18 0.799998H23.616L15.552 26.036H8.388L0.324 0.799998ZM32.976 26.324C30.96 26.324 29.256 25.868 27.864 24.956C26.496 24.02 25.476 22.808 24.804 21.32C24.156 19.808 23.832 18.188 23.832 16.46C23.832 14.732 24.156 13.124 24.804 11.636C25.476 10.124 26.496 8.9 27.864 7.964C29.256 7.028 30.984 6.56 33.048 6.56C35.736 6.56 37.872 7.412 39.456 9.116C41.04 10.796 41.832 13.244 41.832 16.46V18.008H29.232V18.296C29.232 19.28 29.568 20.132 30.24 20.852C30.936 21.548 31.812 21.896 32.868 21.896C33.684 21.896 34.38 21.716 34.956 21.356C35.532 20.972 35.94 20.468 36.18 19.844H41.688C41.208 21.74 40.212 23.3 38.7 24.524C37.212 25.724 35.304 26.324 32.976 26.324ZM36.468 14.408C36.444 13.112 36.108 12.152 35.46 11.528C34.836 10.904 33.996 10.592 32.94 10.592C31.86 10.592 30.996 10.928 30.348 11.6C29.724 12.272 29.4 13.208 29.376 14.408H36.468ZM45.2239 6.956H50.8039V9.98H51.0919C51.3799 9.14 51.9439 8.432 52.7839 7.856C53.6479 7.256 54.7639 6.956 56.1319 6.956C56.5399 6.956 56.9239 6.992 57.2839 7.064L57.0319 12.212C56.4799 12.02 55.8439 11.924 55.1239 11.924C53.6119 11.924 52.5079 12.308 51.8119 13.076C51.1399 13.844 50.8039 15.116 50.8039 16.892V26H45.2239V6.956ZM66.904 26.324C65.296 26.324 63.904 26.024 62.728 25.424C61.552 24.824 60.652 24.044 60.028 23.084C59.428 22.1 59.128 21.068 59.128 19.988V19.736H64.564V19.952C64.564 20.504 64.78 20.996 65.212 21.428C65.644 21.836 66.256 22.04 67.048 22.04C67.72 22.04 68.26 21.884 68.668 21.572C69.076 21.236 69.28 20.804 69.28 20.276C69.28 19.796 69.088 19.412 68.704 19.124C68.32 18.836 67.84 18.644 67.264 18.548L65.212 18.116C63.82 17.876 62.536 17.324 61.36 16.46C60.184 15.572 59.596 14.216 59.596 12.392C59.596 10.544 60.256 9.116 61.576 8.108C62.92 7.076 64.636 6.56 66.724 6.56C68.284 6.56 69.628 6.836 70.756 7.388C71.884 7.94 72.736 8.672 73.312 9.584C73.888 10.472 74.176 11.42 74.176 12.428V12.608H68.74V12.5C68.74 12.02 68.56 11.576 68.2 11.168C67.84 10.76 67.288 10.556 66.544 10.556C65.92 10.556 65.416 10.712 65.032 11.024C64.672 11.312 64.492 11.72 64.492 12.248C64.492 13.184 65.272 13.796 66.832 14.084L69.064 14.588C70.576 14.924 71.848 15.536 72.88 16.424C73.936 17.312 74.464 18.572 74.464 20.204C74.464 21.452 74.128 22.544 73.456 23.48C72.808 24.392 71.908 25.1 70.756 25.604C69.604 26.084 68.32 26.324 66.904 26.324ZM84.1179 26.324C81.7659 26.324 79.9419 25.436 78.6459 23.66C77.3739 21.86 76.7379 19.46 76.7379 16.46C76.7379 13.436 77.3979 11.036 78.7179 9.26C80.0379 7.46 81.8619 6.56 84.1899 6.56C85.7979 6.56 87.0339 6.92 87.8979 7.64C88.7619 8.336 89.3619 9.044 89.6979 9.764H89.9859V6.956H95.6379V26H89.9859V22.94H89.6979C89.3379 23.708 88.7139 24.464 87.8259 25.208C86.9619 25.952 85.7259 26.324 84.1179 26.324ZM86.2419 21.824C87.5139 21.824 88.4619 21.296 89.0859 20.24C89.7099 19.16 90.0219 17.888 90.0219 16.424C90.0219 14.984 89.7099 13.736 89.0859 12.68C88.4619 11.6 87.5139 11.06 86.2419 11.06C84.9219 11.06 83.9499 11.588 83.3259 12.644C82.7259 13.676 82.4259 14.924 82.4259 16.388C82.4259 17.876 82.7259 19.16 83.3259 20.24C83.9499 21.296 84.9219 21.824 86.2419 21.824Z" fill="white"/>
</svg>
